
<svg xmlns="http://www.w3.org/2000/svg" width="60" height="40" viewBox="0 0 60 40">
  <rect width="60" height="40" rx="4" fill="#F9F9F9"/>
  <path d="M13 15.6804H17.9001L19.2001 18.7204V15.6804H25.0001L25.7001 17.7604L26.4001 15.6804H47.0001V24.6004H26.7001L25.9001 22.5204L25.1001 24.6004H21.7001V22.0804L20.5001 24.6004H18.0001L16.8001 22.0804V24.6004H13L12.6 23.5204H11L10.6 24.6004H8.0L10.4 18.8404L10.9 17.4004L12 15.6804H13Z" fill="#006FCF"/>
  <path d="M13.9 19.9203L12.6 23.0403H13.7L14.1 22.0403H16L16.4 23.0403H17.5L16.2 19.9203H13.9ZM14.5 21.2403L15 19.8603L15.5 21.2403H14.5Z" fill="white"/>
  <path d="M17.8999 23.0402V19.9202H20.6999L21.3999 21.1002L22.0999 19.9202H24.7999V23.0402H23.6999V21.1002H23.7999L22.9999 23.0402H21.6999L20.8999 21.1002H20.9999V23.0402H17.8999Z" fill="white"/>
  <path d="M25.2001 23.0402V19.9202H29.3001V20.8402H26.3001V21.1002H29.2001V22.0202H26.3001V22.3602H29.3001V23.0402H25.2001Z" fill="white"/>
  <path d="M27.5 17.7601L26.8 15.6801H28.4L28.7 16.6801L29 15.6801H30.6L29.9 17.7601V18.7601H28.8V17.7601H27.5Z" fill="white"/>
  <path d="M38.0001 23.0401V19.9301H40.1001L40.9001 21.8401L41.7001 19.9301H43.8001V23.0301H42.7001V20.7301L41.8001 23.0301H40.0001L39.1001 20.7301V23.0301L38.0001 23.0401Z" fill="white"/>
  <path d="M44.2998 23.0402V19.9202H48.3998V20.8402H45.3998V21.1002H48.2998V22.0202H45.3998V22.3602H48.3998V23.0402H44.2998Z" fill="white"/>
  <path d="M18.5 18.7595V15.6895H22.8V16.5895H19.6V16.9395H22.7V17.7595H19.6V18.1095H22.8V18.7595H18.5Z" fill="white"/>
  <path d="M23 18.7603V15.6903H25.5L26.3 17.3803L27.1 15.6903H29.6V18.7603H28.6V16.4903H28.5L27.5 18.7603H25L24 16.4903H23.9V18.7603H23Z" fill="white"/>
  <path d="M29.9001 18.7602V15.6902H33.9001V16.6102H31.0001V16.8702H33.9001V17.7902H31.0001V18.1302H34.0001V18.7602H29.9001Z" fill="white"/>
  <path d="M34.3999 18.7605L36.3999 15.6905H38.2999L40.2999 18.7605H38.6999L38.3999 18.2605H36.2999L35.9999 18.7605H34.3999ZM36.8999 16.8605L36.5999 17.4605H37.9999L37.6999 16.8605L37.2999 15.9605L36.8999 16.8605Z" fill="white"/>
  <path d="M40.3999 18.7599V15.6899H42.0999L43.3999 18.0699V15.6899H44.3999V18.7599H42.6999L41.3999 16.4799V18.7599H40.3999Z" fill="white"/>
  <path d="M31.7001 23.0402V19.9202H34.3001C35.1001 19.9202 35.7001 20.3202 35.7001 20.9802C35.7001 21.5502 35.3001 21.8802 34.8001 21.9702C35.2001 22.0302 35.4001 22.2602 35.5001 22.5402C35.6001 22.9402 35.5001 23.0402 35.9001 23.0402H35.0001C34.7001 23.0402 34.7001 22.8802 34.6001 22.6602C34.5001 22.3602 34.5001 22.1402 34.1001 22.1402H32.8001V23.0402H31.7001ZM32.8001 21.4402H33.8001C34.2001 21.4402 34.6001 21.3402 34.6001 20.9402C34.6001 20.5902 34.3001 20.4402 34.0001 20.4402H32.8001V21.4402Z" fill="white"/>
</svg>
