
<svg xmlns="http://www.w3.org/2000/svg" width="60" height="40" viewBox="0 0 60 40">
  <rect width="60" height="40" rx="4" fill="#F9F9F9"/>
  <path d="M37.992 13H22.008C21.4516 13 21 13.4516 21 14.008V25.992C21 26.5484 21.4516 27 22.008 27H37.992C38.5484 27 39 26.5484 39 25.992V14.008C39 13.4516 38.5484 13 37.992 13Z" fill="white"/>
  <path d="M25 20C25 17.2386 27.2386 15 30 15C32.7614 15 35 17.2386 35 20C35 22.7614 32.7614 25 30 25C27.2386 25 25 22.7614 25 20Z" fill="#E50019"/>
  <path d="M30 15C32.7614 15 35 17.2386 35 20C35 22.7614 32.7614 25 30 25" fill="#FF5F01"/>
  <path d="M30 15C32.7614 15 35 17.2386 35 20C35 22.7614 32.7614 25 30 25" stroke="white" stroke-width="0.4"/>
  <path d="M30 15C27.2386 15 25 17.2386 25 20C25 22.7614 27.2386 25 30 25" fill="#F79E1B"/>
  <path d="M30 15C27.2386 15 25 17.2386 25 20C25 22.7614 27.2386 25 30 25" stroke="white" stroke-width="0.4"/>
</svg>
