
<svg xmlns="http://www.w3.org/2000/svg" width="60" height="40" viewBox="0 0 60 40">
  <rect width="60" height="40" rx="4" fill="#F9F9F9"/>
  <path d="M24.156 15.035L20.513 25.002H17.781L15.989 17.07C15.852 16.544 15.738 16.337 15.235 16.096C14.435 15.729 13.112 15.387 12 15.187L12.06 15.035H16.307C16.886 15.035 17.403 15.405 17.529 16.023L18.435 21.967L20.707 15.035H24.156ZM39.18 21.661C39.189 19.134 35.95 19.001 35.969 18.016C35.976 17.671 36.318 17.304 37.084 17.212C37.496 17.165 38.65 17.129 39.947 17.706L40.42 15.267C39.728 15.016 38.843 14.774 37.737 14.774C34.525 14.774 32.295 16.431 32.277 18.813C32.258 20.574 33.865 21.554 35.077 22.134C36.33 22.729 36.76 23.103 36.754 23.615C36.745 24.408 35.784 24.758 34.892 24.769C33.306 24.79 32.395 24.378 31.64 24.078L31.145 26.598C31.903 26.897 33.275 27.161 34.7 27.173C38.128 27.173 40.327 25.537 40.338 23.006C40.346 21.574 39.18 21.661 39.18 21.661ZM47.95 25.002H50.994L48.242 15.035H45.889C45.375 15.035 44.936 15.312 44.739 15.765L40.14 25.002H43.587L44.177 23.454H47.618L47.95 25.002ZM45.092 21.098L46.505 17.392L47.315 21.098H45.092ZM30.414 15.035L27.674 25.002H24.385L27.124 15.035H30.414Z" fill="#172B85"/>
</svg>
