<svg width="800" height="500" xmlns="http://www.w3.org/2000/svg">
  <rect width="800" height="500" fill="#ffffff" rx="8" ry="8"/>
  
  <!-- Header -->
  <rect x="0" y="0" width="800" height="60" fill="#f1f5f9" rx="8" ry="8"/>
  <text x="25" y="38" font-family="Arial, sans-serif" font-size="16" font-weight="bold" fill="#3B82F6">White Label Webshop</text>
  
  <!-- Sidebar -->
  <rect x="0" y="60" width="200" height="440" fill="#f8fafc"/>
  
  <!-- Navigation items -->
  <rect x="20" y="90" width="160" height="40" fill="#3B82F6" rx="4" ry="4"/>
  <text x="50" y="115" font-family="Arial, sans-serif" font-size="14" fill="white">Dashboard</text>
  
  <rect x="20" y="140" width="160" height="40" fill="#f1f5f9" rx="4" ry="4"/>
  <text x="50" y="165" font-family="Arial, sans-serif" font-size="14" fill="#1E293B">Products</text>
  
  <rect x="20" y="190" width="160" height="40" fill="#f1f5f9" rx="4" ry="4"/>
  <text x="50" y="215" font-family="Arial, sans-serif" font-size="14" fill="#1E293B">Orders</text>
  
  <rect x="20" y="240" width="160" height="40" fill="#f1f5f9" rx="4" ry="4"/>
  <text x="50" y="265" font-family="Arial, sans-serif" font-size="14" fill="#1E293B">Customers</text>
  
  <rect x="20" y="290" width="160" height="40" fill="#f1f5f9" rx="4" ry="4"/>
  <text x="50" y="315" font-family="Arial, sans-serif" font-size="14" fill="#1E293B">Settings</text>
  
  <!-- Main Content -->
  <text x="220" y="100" font-family="Arial, sans-serif" font-size="22" font-weight="bold" fill="#1E293B">Dashboard</text>
  
  <!-- Stats cards -->
  <rect x="220" y="120" width="180" height="100" fill="white" rx="8" ry="8" stroke="#e2e8f0" stroke-width="1"/>
  <text x="240" y="150" font-family="Arial, sans-serif" font-size="14" fill="#64748b">Total Sales</text>
  <text x="240" y="185" font-family="Arial, sans-serif" font-size="24" font-weight="bold" fill="#1E293B">$12,450</text>
  
  <rect x="420" y="120" width="180" height="100" fill="white" rx="8" ry="8" stroke="#e2e8f0" stroke-width="1"/>
  <text x="440" y="150" font-family="Arial, sans-serif" font-size="14" fill="#64748b">Orders</text>
  <text x="440" y="185" font-family="Arial, sans-serif" font-size="24" font-weight="bold" fill="#1E293B">143</text>
  
  <rect x="620" y="120" width="160" height="100" fill="white" rx="8" ry="8" stroke="#e2e8f0" stroke-width="1"/>
  <text x="640" y="150" font-family="Arial, sans-serif" font-size="14" fill="#64748b">Customers</text>
  <text x="640" y="185" font-family="Arial, sans-serif" font-size="24" font-weight="bold" fill="#1E293B">89</text>
  
  <!-- Recent Orders -->
  <text x="220" y="260" font-family="Arial, sans-serif" font-size="18" font-weight="bold" fill="#1E293B">Recent Orders</text>
  
  <!-- Table header -->
  <rect x="220" y="280" width="560" height="40" fill="#f8fafc" rx="4" ry="4"/>
  <text x="240" y="305" font-family="Arial, sans-serif" font-size="14" font-weight="bold" fill="#64748b">Order ID</text>
  <text x="350" y="305" font-family="Arial, sans-serif" font-size="14" font-weight="bold" fill="#64748b">Customer</text>
  <text x="500" y="305" font-family="Arial, sans-serif" font-size="14" font-weight="bold" fill="#64748b">Amount</text>
  <text x="620" y="305" font-family="Arial, sans-serif" font-size="14" font-weight="bold" fill="#64748b">Status</text>
  
  <!-- Order rows -->
  <line x1="220" y1="320" x2="780" y2="320" stroke="#e2e8f0" stroke-width="1"/>
  <text x="240" y="345" font-family="Arial, sans-serif" font-size="14" fill="#1E293B">#1234</text>
  <text x="350" y="345" font-family="Arial, sans-serif" font-size="14" fill="#1E293B">John Smith</text>
  <text x="500" y="345" font-family="Arial, sans-serif" font-size="14" fill="#1E293B">$349.99</text>
  <rect x="620" y="330" width="80" height="25" fill="#ecfdf5" rx="4" ry="4"/>
  <text x="635" y="345" font-family="Arial, sans-serif" font-size="14" fill="#047857">Completed</text>
  
  <line x1="220" y1="360" x2="780" y2="360" stroke="#e2e8f0" stroke-width="1"/>
  <text x="240" y="385" font-family="Arial, sans-serif" font-size="14" fill="#1E293B">#1235</text>
  <text x="350" y="385" font-family="Arial, sans-serif" font-size="14" fill="#1E293B">Emily Johnson</text>
  <text x="500" y="385" font-family="Arial, sans-serif" font-size="14" fill="#1E293B">$129.50</text>
  <rect x="620" y="370" width="80" height="25" fill="#eff6ff" rx="4" ry="4"/>
  <text x="635" y="385" font-family="Arial, sans-serif" font-size="14" fill="#2563eb">Processing</text>
  
  <line x1="220" y1="400" x2="780" y2="400" stroke="#e2e8f0" stroke-width="1"/>
  <text x="240" y="425" font-family="Arial, sans-serif" font-size="14" fill="#1E293B">#1236</text>
  <text x="350" y="425" font-family="Arial, sans-serif" font-size="14" fill="#1E293B">Robert Davis</text>
  <text x="500" y="425" font-family="Arial, sans-serif" font-size="14" fill="#1E293B">$89.95</text>
  <rect x="620" y="410" width="80" height="25" fill="#ecfdf5" rx="4" ry="4"/>
  <text x="635" y="425" font-family="Arial, sans-serif" font-size="14" fill="#047857">Completed</text>
</svg> 